# xmcd CD database file
#
# Track frame offsets:
#	150
#	11220
#	22142
#	35262
#	50140
#	59802
#	72477
#	84045
#	95947
#	108002
#	117510
#	128325
#	139855
#	152540
#	165425
#	177885
#
# Disc length: 2526 seconds
#
# Revision: 0
# Processed by: cddbd v1.5.1PL0 Copyright (c) Steve Scherf et al.
# Submitted via: CDex 1.51
#
DISCID=d809dc10
DTITLE=Jimmy Reed - Found Love
DYEAR=2000
DGENRE=Blues
TTITLE0=Baby What You Want Me To Do
TTITLE1=Found Love
TTITLE2=Meet Me
TTITLE3=I Was So Wrong
TTITLE4=Going By The River, part 2
TTITLE5=Big Boss Man
TTITLE6=Hush-Hush
TTITLE7=Where Can You Be
TTITLE8=I'm Nervous
TTITLE9=Going By The River, part 1
TTITLE10=I Ain't Got You
TTITLE11=Come Love
TTITLE12=I'm Gonna Ruin You (fist version)
TTITLE13=The Sun Is Shining
TTITLE14=I'm Gonna Get My Baby
TTITLE15=Please Don't
EXTD=YEAR: 2000
EXTT0=
EXTT1=
EXTT2=
EXTT3=
EXTT4=
EXTT5=
EXTT6=
EXTT7=
EXTT8=
EXTT9=
EXTT10=
EXTT11=
EXTT12=
EXTT13=
EXTT14=
EXTT15=
PLAYORDER=
